M48
;Layer_Color=9474304
;FILE_FORMAT=2:5
INCH,LZ
;TYPE=PLATED
T1F00S00C0.02800
T2F00S00C0.03071
T3F00S00C0.03346
T4F00S00C0.03500
T5F00S00C0.03543
T6F00S00C0.03937
T7F00S00C0.04016
T8F00S00C0.04724
T9F00S00C0.12000
;TYPE=NON_PLATED
T10F00S00C0.11811
%
T01
X0228Y00295
X02405Y00555
X01575Y00295
X0121Y0031
X0078Y00145
X00505Y0031
Y0189
X0121
X01385Y01765
X01575Y01875
X0228
X0241Y02265
T02
X00525Y020937
X00625
X00725
X00825
Y024063
X00725
X00625
X00525
T03
X0209Y0014
X0239
X0037Y00585
X0007
X00065Y0146
Y0175
X0007Y0197
X0037
X00365Y0146
X01145Y02065
X01445
X03025Y0218
X03325
X0354Y02235
X0384
X03895Y02055
X03905Y01815
X04205
X04195Y02055
X04035Y0143
Y0113
X0332Y0235
X0302
X01445Y0232
X01145
T04
X00365Y0175
T05
X0181Y0007
X0191
X01615Y00115
X01565
X01515
X0123Y00135
X0118
X0113
X00565Y00145
X00465
X00295Y0101
Y0106
Y0111
X0257Y02255
X0267
T06
X0381Y00075
Y00175
Y00275
X03985Y0029
Y0039
Y0049
Y0059
X02485Y0077
Y0087
Y0097
X021Y02115
X02
X019
Y0227
X02
X021
X04015Y00985
Y00885
Y00785
T07
X0366Y0030083
Y0040083
Y0050083
Y0060083
Y0070083
X0266
Y0060083
Y0050083
Y0040083
Y0030083
Y0080083
Y0090083
Y0100083
Y0110083
Y0120083
Y0130083
Y0140083
Y0150083
Y0160083
Y0170083
X0366
Y0160083
Y0150083
Y0140083
Y0130083
Y0120083
Y0110083
Y0100083
Y0090083
Y0080083
T08
X01405Y0041409
Y0082591
X014Y0106409
Y0147591
T09
X0427Y00155
X0013Y00145
X0428Y02315
X00145Y0231
T10
X036415Y0016579
X0267653
Y0201421
X036415
M30
